<svg width="48" height="48" viewBox="0 0 48 48" fill="none" xmlns="http://www.w3.org/2000/svg">
<rect width="48" height="48" rx="24" fill="url(#paint0_radial_210_90686)"/>
<path d="M37.5472 24.3625C37.5472 31.6351 31.6518 37.5306 24.3791 37.5306C17.1065 37.5306 11.211 31.6351 11.211 24.3625C11.211 17.0898 17.1065 11.1943 24.3791 11.1943C31.6518 11.1943 37.5472 17.0898 37.5472 24.3625Z" fill="#039855"/>
<path d="M29.678 22.7343C30.2789 23.4852 30.5794 24.3463 30.5794 25.3178V35.9824C29.9215 36.3336 29.2319 36.631 28.5145 36.867L28.5164 25.3345C28.5164 24.964 28.4234 24.6053 28.2376 24.2584C27.9241 23.681 27.3721 23.3923 26.5816 23.3923C25.7923 23.3923 25.2409 23.681 24.9274 24.2584C24.7416 24.7788 24.6486 25.1319 24.6486 25.3178V28.2822C24.6486 29.0108 24.4126 29.6086 23.9405 30.0758C23.4684 30.5441 22.8693 30.7783 22.1433 30.7783C21.4172 30.7783 20.8212 30.5441 20.3553 30.0758C19.8882 29.6074 19.6546 29.0095 19.6546 28.2822V12.0679C20.3144 11.8151 20.9965 11.6125 21.7009 11.4675V28.2636C21.7009 28.5759 21.8515 28.732 22.1525 28.732C22.4524 28.732 22.6023 28.5759 22.6023 28.2636V25.3159C22.6023 24.3457 22.9028 23.4846 23.5037 22.7325C24.2435 21.8081 25.2725 21.3459 26.5909 21.3459C27.9092 21.3459 28.9383 21.8087 29.678 22.7343V22.7343Z" fill="white"/>
<path fill-rule="evenodd" clip-rule="evenodd" d="M28.4959 36.8931L28.4978 25.3345C28.4978 24.9683 28.403 24.6096 28.2208 24.2676C27.9123 23.6989 27.3603 23.4108 26.5815 23.4108C25.8047 23.4108 25.2526 23.6989 24.9441 24.2676C24.7601 24.7825 24.6672 25.1356 24.6672 25.3177V28.2822C24.6672 29.0126 24.4274 29.6204 23.9535 30.0888C23.4796 30.559 22.8699 30.7969 22.1432 30.7969C21.4165 30.7969 20.8088 30.559 20.3423 30.0888C19.8739 29.6204 19.636 29.0108 19.636 28.2822V12.0548L19.649 12.0493C20.3125 11.7946 21.002 11.592 21.6972 11.4489L21.7195 11.4434V28.2636C21.7195 28.4142 21.7566 28.5294 21.8273 28.6019C21.8979 28.6762 22.0075 28.7134 22.1525 28.7134C22.2956 28.7134 22.4053 28.6762 22.4759 28.6019C22.5484 28.5294 22.5837 28.4142 22.5837 28.2636V25.3159C22.5837 24.3457 22.8885 23.4722 23.4907 22.7213C24.2304 21.7976 25.2731 21.3274 26.5908 21.3274C27.9086 21.3274 28.9512 21.7976 29.691 22.7213C30.2932 23.474 30.598 24.3457 30.598 25.3177V35.9935L30.5868 35.9991C29.927 36.3522 29.2319 36.6496 28.5219 36.8856L28.4959 36.8931ZM26.5797 23.3737C27.3733 23.3737 27.9365 23.6673 28.2506 24.2491C28.4383 24.5985 28.5331 24.9628 28.5331 25.3345V36.841C29.2282 36.6087 29.9103 36.3169 30.5589 35.9712V25.3159C30.5589 24.355 30.256 23.4889 29.6612 22.7436C29.2951 22.2864 28.8509 21.9388 28.3416 21.7102C27.8324 21.4798 27.2432 21.3645 26.589 21.3645C25.9366 21.3645 25.3474 21.4798 24.8363 21.7084C24.3271 21.9388 23.8829 22.2864 23.5167 22.7436C22.922 23.4889 22.619 24.355 22.619 25.3159V28.2636C22.619 28.4235 22.58 28.5461 22.5019 28.6279C22.4239 28.7097 22.3049 28.7506 22.1507 28.7506C21.9945 28.7506 21.8774 28.7097 21.7994 28.6279C21.7213 28.5461 21.6804 28.4235 21.6804 28.2636V11.4898C20.9983 11.6311 20.3237 11.8299 19.6732 12.079L19.6713 28.2803C19.6713 29.0015 19.9055 29.5999 20.3664 30.0627C20.8273 30.5255 21.424 30.7597 22.1414 30.7597C22.8588 30.7597 23.4591 30.5255 23.9256 30.0627C24.3921 29.5999 24.6282 29.0015 24.6282 28.2803V25.3159C24.6282 25.13 24.723 24.7713 24.9088 24.2528V24.2491C25.2248 23.6673 25.7879 23.3737 26.5797 23.3737V23.3737Z" fill="white"/>
<defs>
<radialGradient id="paint0_radial_210_90686" cx="0" cy="0" r="1" gradientUnits="userSpaceOnUse" gradientTransform="translate(24 24) rotate(90) scale(24)">
<stop stop-color="#039855"/>
<stop offset="1"/>
</radialGradient>
</defs>
</svg>
