<svg width="48" height="44" viewBox="0 0 48 44" fill="none" xmlns="http://www.w3.org/2000/svg">
<path d="M39.6836 15.4508V29.9171C39.6836 32.0896 38.5235 34.0964 36.6433 35.1812L22.8821 43.1269C21.0019 44.2147 18.6817 44.2147 16.8015 43.1269L3.0403 35.1812C1.16008 34.0964 0 32.0896 0 29.9171V19.7928V17.075V14.0256C0 11.8531 1.16008 9.84633 3.0403 8.76158L16.8015 0.815819C18.6817 -0.27194 21.0019 -0.27194 22.8821 0.815819L27.5465 3.5096L27.5345 3.51563L36.0708 8.43314C35.3959 9.18041 34.9831 10.1718 34.9831 11.2595C34.9831 13.5887 36.8723 15.478 39.2015 15.478C39.3642 15.478 39.5249 15.4689 39.6836 15.4508V15.4508Z" fill="url(#paint0_linear_210_90687)"/>
<path d="M10.4798 28.0007H16.8798C17.366 28.0007 17.8792 28.0007 18.4196 28.0007C18.9579 28.0007 19.4702 27.9686 19.9563 27.9043C20.4424 27.842 20.8653 27.7205 21.2248 27.5397C21.5844 27.3609 21.8275 27.0827 21.954 26.705C22.0987 26.237 22.1127 25.9126 21.9962 25.7318C21.8777 25.553 21.6296 25.3642 21.252 25.1653C20.9286 25.1834 20.5328 25.1924 20.0648 25.1924C19.5967 25.1924 19.0975 25.1793 18.5672 25.1532C18.0349 25.1251 17.4945 25.0799 16.9461 25.0176C16.3977 24.9544 15.8975 24.8459 15.4335 24.7193C14.1318 24.3668 13.2429 22.7819 13.0983 22.3841C12.9557 21.9884 12.8432 21.5655 12.7608 21.1156C12.6805 20.6656 12.6544 20.1885 12.6825 19.6843C12.7086 19.1801 12.812 18.6669 12.9928 18.1446C12.4886 18.3434 12.0336 18.5734 11.6279 18.8346C11.2241 19.0957 10.8866 19.3971 10.6154 19.7385C10.5612 19.7928 10.516 19.8199 10.4798 19.8199C10.3894 19.8741 10.291 19.8782 10.1845 19.832C10.0761 19.7878 10.0399 19.7114 10.0761 19.603C10.6707 18.47 11.2643 17.4626 11.8569 16.5807C12.4515 15.6989 13.1355 14.9566 13.9088 14.354C14.6822 13.7513 15.6002 13.2923 16.6629 12.977C17.7255 12.6616 19.0393 12.5129 20.6041 12.531H30.4874L29.3243 17.3642L20.6584 17.3913C20.0296 17.4636 19.4852 17.5891 19.0252 17.7679C18.5672 17.9487 18.2478 18.246 18.067 18.6598C17.8682 19.1098 17.828 19.4834 17.9465 19.7807C18.063 20.076 18.292 20.305 18.6335 20.4677C18.7781 20.54 18.9228 20.5893 19.0674 20.6154C19.21 20.6435 19.3808 20.6616 19.5796 20.6696C19.7765 20.6797 20.0105 20.6847 20.2817 20.6847C20.5509 20.6847 20.8743 20.6847 21.252 20.6847C22.855 20.6847 24.0884 20.8102 24.9522 21.0613C25.8159 21.3144 26.4638 21.7463 26.8957 22.357C27.2372 22.825 27.426 23.4598 27.4621 24.2613C27.4983 25.0628 27.3637 25.8955 27.0584 26.7593C26.6968 27.8561 26.2147 28.8685 25.612 29.7965C25.0094 30.7226 24.1948 31.4287 23.1683 31.9148C22.5396 32.2201 21.712 32.4321 20.6855 32.5506C19.659 32.6671 18.3362 32.7254 16.7171 32.7254H9.31976L10.4798 28.0007Z" fill="white"/>
<path d="M39.2015 8.427C40.7654 8.427 42.0339 9.69555 42.0339 11.2594C42.0339 12.8232 40.7654 14.0918 39.2015 14.0918C37.6377 14.0918 36.3691 12.8232 36.3691 11.2594C36.3691 9.69555 37.6377 8.427 39.2015 8.427Z" fill="url(#paint1_linear_210_90687)"/>
<path d="M46.3126 10.5967C47.2437 10.5967 48 11.353 48 12.2841C48 13.2151 47.2437 13.9714 46.3126 13.9714C45.3816 13.9714 44.6252 13.2151 44.6252 12.2841C44.6252 11.353 45.3816 10.5967 46.3126 10.5967Z" fill="url(#paint2_linear_210_90687)"/>
<path d="M43.5104 4.41968C44.1431 4.41968 44.6554 4.93192 44.6554 5.56469C44.6554 6.19746 44.1431 6.7097 43.5104 6.7097C42.8776 6.7097 42.3654 6.19746 42.3654 5.56469C42.3654 4.93192 42.8776 4.41968 43.5104 4.41968Z" fill="url(#paint3_linear_210_90687)"/>
<defs>
<linearGradient id="paint0_linear_210_90687" x1="47.1925" y1="15.1314" x2="38.0776" y2="35.8441" gradientUnits="userSpaceOnUse">
<stop stop-color="#FF9C49"/>
<stop offset="1" stop-color="#FF0D2B"/>
</linearGradient>
<linearGradient id="paint1_linear_210_90687" x1="43.6369" y1="11.0093" x2="34.281" y2="22.143" gradientUnits="userSpaceOnUse">
<stop stop-color="#FF9C49"/>
<stop offset="1" stop-color="#FF0D2B"/>
</linearGradient>
<linearGradient id="paint2_linear_210_90687" x1="48.9733" y1="12.1515" x2="43.3989" y2="18.7835" gradientUnits="userSpaceOnUse">
<stop stop-color="#FF9C49"/>
<stop offset="1" stop-color="#FF0D2B"/>
</linearGradient>
<linearGradient id="paint3_linear_210_90687" x1="45.3303" y1="5.48634" x2="41.5488" y2="9.98804" gradientUnits="userSpaceOnUse">
<stop stop-color="#FF9C49"/>
<stop offset="1" stop-color="#FF0D2B"/>
</linearGradient>
</defs>
</svg>
